<svg width="2460" height="818" viewBox="0 0 2460 818" fill="none" xmlns="http://www.w3.org/2000/svg">
<g clip-path="url(#clip0_150_279)">
<g clip-path="url(#clip1_150_279)">
<path fill-rule="evenodd" clip-rule="evenodd" d="M243.547 115H467.444C484.29 115.013 500.441 121.714 512.348 133.63C524.255 145.545 530.943 161.702 530.943 178.547V207.258C524.636 206.032 518.228 205.407 511.803 205.392H509.075V184.289H201.868V614.953H508.98V528.916H511.707C518.133 528.924 524.544 528.299 530.848 527.05V639.453C530.848 656.299 524.159 672.455 512.252 684.371C500.345 696.287 484.194 702.987 467.349 703H243.547C226.693 703 210.53 696.305 198.612 684.388C186.695 672.47 180 656.307 180 639.453V178.451C179.994 170.109 181.634 161.847 184.826 154.14C188.019 146.433 192.701 139.431 198.604 133.537C204.508 127.642 211.516 122.971 219.228 119.79C226.94 116.609 235.205 114.981 243.547 115ZM355.376 634.62C360.543 634.62 365.595 636.153 369.891 639.023C374.188 641.894 377.537 645.975 379.514 650.749C381.492 655.523 382.009 660.776 381.001 665.844C379.993 670.912 377.504 675.568 373.851 679.222C370.197 682.876 365.541 685.364 360.473 686.372C355.405 687.38 350.152 686.863 345.378 684.885C340.604 682.908 336.523 679.559 333.652 675.263C330.781 670.966 329.249 665.915 329.249 660.747C329.243 657.314 329.914 653.914 331.225 650.741C332.536 647.569 334.46 644.686 336.887 642.259C339.315 639.831 342.197 637.907 345.37 636.596C348.543 635.285 351.943 634.614 355.376 634.62Z" fill="#262626"/>
<path fill-rule="evenodd" clip-rule="evenodd" d="M511.707 243.386C519.631 243.348 527.485 244.88 534.814 247.894C542.143 250.907 548.803 255.343 554.408 260.944C560.014 266.545 564.455 273.201 567.474 280.528C570.493 287.855 572.032 295.707 572 303.631V430.821C572.032 438.747 570.494 446.602 567.475 453.931C564.456 461.261 560.016 467.92 554.411 473.525C548.806 479.13 542.147 483.57 534.818 486.589C527.488 489.607 519.634 491.145 511.707 491.114H462.611C437.394 523.031 404.615 542.219 365.808 552.603C364.253 553.036 362.607 553.023 361.059 552.567C359.51 552.11 358.122 551.227 357.051 550.019C356.305 549.185 355.731 548.212 355.363 547.156C354.995 546.1 354.839 544.981 354.906 543.864C354.973 542.747 355.26 541.655 355.752 540.65C356.243 539.645 356.928 538.747 357.769 538.008C362.362 534.034 366.546 529.61 370.258 524.801C377.35 514.473 382.64 503.018 385.905 490.922H338.054C322.155 490.859 306.93 484.499 295.71 473.235C284.491 461.97 278.191 446.719 278.191 430.821V303.535C278.16 295.613 279.696 287.762 282.712 280.436C285.728 273.11 290.163 266.453 295.763 260.848C301.363 255.244 308.017 250.803 315.341 247.781C322.665 244.76 330.514 243.217 338.437 243.242C402.031 243.242 448.112 243.242 511.707 243.242V243.386Z" fill="#33A867"/>
<path d="M446.294 433.117C445.389 437.984 442.818 442.383 439.021 445.559C436.106 448.002 432.6 449.637 428.855 450.301C425.11 450.964 421.256 450.632 417.679 449.339C415.308 448.495 413.117 447.212 411.219 445.559C409.295 443.963 407.674 442.035 406.434 439.864C405.18 437.705 404.321 435.339 403.898 432.878C403.8 432.282 403.942 431.672 404.291 431.179C404.64 430.687 405.169 430.352 405.764 430.246H444.045C444.399 430.248 444.748 430.331 445.064 430.49C445.381 430.648 445.656 430.878 445.869 431.16C446.082 431.443 446.227 431.771 446.293 432.119C446.358 432.466 446.342 432.825 446.246 433.165L446.294 433.117ZM377.292 290.663C378.403 290.225 379.642 290.247 380.736 290.722C381.831 291.198 382.692 292.089 383.13 293.199C383.568 294.31 383.547 295.549 383.071 296.644C382.596 297.738 381.704 298.6 380.594 299.037C375.768 300.808 371.433 303.702 367.947 307.479C364.46 311.257 361.923 315.81 360.544 320.762C360.375 321.327 360.095 321.852 359.721 322.308C359.347 322.763 358.886 323.14 358.365 323.416C357.844 323.692 357.274 323.862 356.687 323.916C356.1 323.969 355.508 323.906 354.946 323.729C353.804 323.386 352.845 322.603 352.279 321.553C351.714 320.504 351.589 319.272 351.931 318.13C353.78 311.839 357.055 306.058 361.501 301.239C365.925 296.576 371.337 292.962 377.34 290.663H377.292ZM469.598 299.037C468.487 298.6 467.596 297.738 467.121 296.644C466.645 295.549 466.624 294.31 467.062 293.199C467.5 292.089 468.361 291.198 469.455 290.722C470.55 290.247 471.789 290.225 472.9 290.663C478.985 292.931 484.452 296.599 488.858 301.37C493.264 306.142 496.485 311.883 498.261 318.13C498.544 319.277 498.393 320.489 497.837 321.532C497.28 322.574 496.357 323.374 495.246 323.777C494.104 324.119 492.873 323.993 491.823 323.428C490.773 322.863 489.991 321.904 489.648 320.762C488.248 315.82 485.703 311.278 482.22 307.503C478.736 303.729 474.412 300.828 469.598 299.037ZM442.61 305.449C445.172 306.468 447.652 307.684 450.027 309.086H450.314C452.538 310.519 454.649 312.118 456.63 313.871C460.809 317.426 464.353 321.665 467.11 326.408C468.457 328.791 469.624 331.27 470.603 333.825C471.614 336.441 472.367 339.15 472.852 341.912C473.374 344.737 473.63 347.605 473.617 350.478V359.713C473.617 362.68 473.617 365.551 473.617 368.374C473.634 370.933 473.794 373.489 474.096 376.031C474.402 378.514 474.865 380.975 475.484 383.4C476.05 385.709 476.852 387.953 477.876 390.099C478.878 392.385 480.079 394.579 481.465 396.655C483.095 398.886 484.938 400.953 486.968 402.827C489.45 405.056 492.088 407.102 494.864 408.952C495.691 409.508 496.266 410.367 496.463 411.344C496.66 412.32 496.464 413.336 495.916 414.168C495.566 414.683 495.095 415.105 494.545 415.397C493.994 415.689 493.381 415.842 492.758 415.843H357.29C356.473 415.834 355.68 415.561 355.031 415.063C354.383 414.566 353.912 413.872 353.691 413.085C353.47 412.298 353.51 411.461 353.806 410.698C354.101 409.936 354.635 409.29 355.328 408.857C358.093 407.012 360.716 404.965 363.176 402.732C365.214 400.861 367.043 398.776 368.631 396.511C369.996 394.481 371.212 392.354 372.268 390.147C373.272 387.988 374.088 385.746 374.708 383.447C375.376 381.013 375.872 378.535 376.192 376.031C376.524 373.46 376.684 370.87 376.67 368.279V350.478C376.662 347.605 376.918 344.738 377.436 341.912C377.947 339.135 378.716 336.412 379.733 333.778C380.698 331.193 381.883 328.695 383.274 326.313C386.008 321.568 389.536 317.327 393.705 313.776C397.944 310.114 402.806 307.246 408.061 305.306C409.872 304.625 411.726 304.066 413.612 303.631C414.152 301.503 415.318 299.585 416.961 298.128C419.334 296.093 422.407 295.063 425.527 295.257C428.627 295.155 431.658 296.194 434.044 298.176C441.605 304.971 432.178 301.239 442.801 305.449H442.61Z" fill="white"/>
</g>
<path d="M961.11 447.976C972.747 447.976 981.699 444.842 987.965 438.576C994.232 432.31 997.365 423.358 997.365 411.721V359.23C997.365 353.534 996.551 348.448 994.923 343.972C993.296 339.496 990.895 335.712 987.721 332.619C984.629 329.445 980.845 327.045 976.369 325.417C971.893 323.789 966.806 322.976 961.11 322.976H897.145V447.976H961.11ZM872.121 473V297.951H961.11C970.469 297.951 978.891 299.416 986.378 302.346C993.947 305.194 1000.38 309.304 1005.67 314.675C1011.04 319.965 1015.15 326.394 1017.99 333.962C1020.92 341.53 1022.39 349.953 1022.39 359.23V411.721C1022.39 420.998 1020.92 429.421 1017.99 436.989C1015.15 444.558 1011.04 451.027 1005.67 456.398C1000.38 461.688 993.947 465.798 986.378 468.728C978.891 471.576 970.469 473 961.11 473H872.121ZM1087.57 297.951V473H1062.55V297.951H1087.57ZM1132.62 322.976C1132.62 319.558 1133.27 316.343 1134.57 313.332C1135.87 310.24 1137.66 307.595 1139.94 305.397C1142.22 303.119 1144.87 301.328 1147.88 300.026C1150.97 298.643 1154.23 297.951 1157.64 297.951H1252.61C1256.03 297.951 1259.25 298.643 1262.26 300.026C1265.35 301.328 1268.04 303.119 1270.31 305.397C1272.59 307.595 1274.38 310.24 1275.69 313.332C1276.99 316.343 1277.64 319.558 1277.64 322.976V345.559H1252.61V322.976H1157.64V447.976H1252.61V405.495H1205.13V380.471H1277.64V447.976C1277.64 451.394 1276.99 454.649 1275.69 457.741C1274.38 460.752 1272.59 463.397 1270.31 465.676C1268.04 467.954 1265.35 469.745 1262.26 471.047C1259.25 472.349 1256.03 473 1252.61 473H1157.64C1154.23 473 1150.97 472.349 1147.88 471.047C1144.87 469.745 1142.22 467.954 1139.94 465.676C1137.66 463.397 1135.87 460.752 1134.57 457.741C1133.27 454.649 1132.62 451.394 1132.62 447.976V322.976ZM1347.58 297.951V473H1322.56V297.951H1347.58ZM1390.19 390.48H1448.66V414.528H1390.19V390.48ZM1476.25 297.951H1616.26V322.976H1558.77V473H1533.74V322.976H1476.25V297.951ZM1738.7 420.266H1652.64V448.952H1738.7V473H1652.64C1649.38 473 1646.29 472.39 1643.36 471.169C1640.43 469.867 1637.87 468.158 1635.67 466.042C1633.55 463.845 1631.85 461.281 1630.54 458.352C1629.32 455.422 1628.71 452.289 1628.71 448.952V367.043C1628.71 363.706 1629.32 360.573 1630.54 357.644C1631.85 354.714 1633.55 352.191 1635.67 350.075C1637.87 347.878 1640.43 346.169 1643.36 344.948C1646.29 343.646 1649.38 342.995 1652.64 342.995H1714.65C1717.99 342.995 1721.12 343.646 1724.05 344.948C1726.98 346.169 1729.5 347.878 1731.62 350.075C1733.81 352.191 1735.52 354.714 1736.74 357.644C1738.05 360.573 1738.7 363.706 1738.7 367.043V420.266ZM1652.64 367.043V396.218H1714.65V367.043H1652.64ZM1888.84 420.266H1802.78V448.952H1888.84V473H1802.78C1799.53 473 1796.44 472.39 1793.51 471.169C1790.58 469.867 1788.01 468.158 1785.82 466.042C1783.7 463.845 1781.99 461.281 1780.69 458.352C1779.47 455.422 1778.86 452.289 1778.86 448.952V367.043C1778.86 363.706 1779.47 360.573 1780.69 357.644C1781.99 354.714 1783.7 352.191 1785.82 350.075C1788.01 347.878 1790.58 346.169 1793.51 344.948C1796.44 343.646 1799.53 342.995 1802.78 342.995H1864.8C1868.13 342.995 1871.27 343.646 1874.2 344.948C1877.13 346.169 1879.65 347.878 1881.76 350.075C1883.96 352.191 1885.67 354.714 1886.89 357.644C1888.19 360.573 1888.84 363.706 1888.84 367.043V420.266ZM1802.78 367.043V396.218H1864.8V367.043H1802.78ZM2044 473H2019.95V367.043H1952.93V473H1929.01V342.995H1952.93V365.944C1953.09 362.771 1953.83 359.8 1955.13 357.033C1956.43 354.185 1958.14 351.743 1960.26 349.709C1962.45 347.593 1964.98 345.965 1967.82 344.826C1970.67 343.605 1973.72 342.995 1976.98 342.995H2019.95C2023.28 342.995 2026.42 343.646 2029.35 344.948C2032.28 346.169 2034.8 347.878 2036.92 350.075C2039.11 352.191 2040.82 354.714 2042.04 357.644C2043.34 360.573 2044 363.706 2044 367.043V473ZM2162.53 448.952V418.801H2105.52C2102.18 418.801 2099.05 418.19 2096.12 416.97C2093.19 415.668 2090.63 413.959 2088.43 411.843C2086.31 409.646 2084.6 407.082 2083.3 404.152C2082.08 401.223 2081.47 398.09 2081.47 394.753V367.043C2081.47 363.706 2082.08 360.573 2083.3 357.644C2084.6 354.714 2086.31 352.191 2088.43 350.075C2090.63 347.878 2093.19 346.169 2096.12 344.948C2099.05 343.646 2102.18 342.995 2105.52 342.995H2181.57V367.043H2105.52V394.753H2162.53C2165.86 394.753 2168.95 395.404 2171.8 396.706C2174.73 397.927 2177.3 399.636 2179.49 401.833C2181.69 403.949 2183.4 406.472 2184.62 409.401C2185.92 412.331 2186.57 415.464 2186.57 418.801V448.952C2186.57 452.289 2185.92 455.422 2184.62 458.352C2183.4 461.281 2181.69 463.845 2179.49 466.042C2177.3 468.158 2174.73 469.867 2171.8 471.169C2168.95 472.39 2165.86 473 2162.53 473H2081.47V448.952H2162.53Z" fill="black"/>
</g>
<defs>
<clipPath id="clip0_150_279">
<rect width="2460" height="818" fill="white"/>
</clipPath>
<clipPath id="clip1_150_279">
<rect width="392" height="588" fill="white" transform="translate(180 115)"/>
</clipPath>
</defs>
</svg>
